<mxfile host="app.diagrams.net" modified="2020-04-21T20:31:58.709Z" agent="5.0 (X11; Linux x86_64) AppleWebKit/537.36 (KHTML, like Gecko) Chrome/81.0.4044.113 Safari/537.36" etag="6wPQcHHlCv4yg8xeLpvy" version="13.0.0" type="github">
  <diagram id="4TcxVArkRIETSUPfzttK" name="Page-1">
    <mxGraphModel dx="1422" dy="774" grid="1" gridSize="10" guides="1" tooltips="1" connect="1" arrows="1" fold="1" page="1" pageScale="1" pageWidth="827" pageHeight="1169" math="0" shadow="0">
      <root>
        <mxCell id="0" />
        <mxCell id="1" parent="0" />
        <mxCell id="dxDKgwhhENgG4zNvhnqX-5" style="edgeStyle=orthogonalEdgeStyle;orthogonalLoop=1;jettySize=auto;html=1;exitX=0;exitY=0.5;exitDx=0;exitDy=0;entryX=0.5;entryY=0;entryDx=0;entryDy=0;curved=1;" edge="1" parent="1" source="dxDKgwhhENgG4zNvhnqX-1" target="dxDKgwhhENgG4zNvhnqX-4">
          <mxGeometry relative="1" as="geometry" />
        </mxCell>
        <mxCell id="dxDKgwhhENgG4zNvhnqX-6" style="edgeStyle=orthogonalEdgeStyle;curved=1;orthogonalLoop=1;jettySize=auto;html=1;exitX=1;exitY=0.5;exitDx=0;exitDy=0;entryX=0.5;entryY=0;entryDx=0;entryDy=0;" edge="1" parent="1" source="dxDKgwhhENgG4zNvhnqX-1" target="dxDKgwhhENgG4zNvhnqX-2">
          <mxGeometry relative="1" as="geometry" />
        </mxCell>
        <mxCell id="dxDKgwhhENgG4zNvhnqX-7" style="edgeStyle=orthogonalEdgeStyle;curved=1;orthogonalLoop=1;jettySize=auto;html=1;exitX=0.5;exitY=1;exitDx=0;exitDy=0;" edge="1" parent="1" source="dxDKgwhhENgG4zNvhnqX-1" target="dxDKgwhhENgG4zNvhnqX-3">
          <mxGeometry relative="1" as="geometry" />
        </mxCell>
        <mxCell id="dxDKgwhhENgG4zNvhnqX-1" value="&lt;b style=&quot;font-size: 16px&quot;&gt;IDLE&lt;/b&gt;" style="ellipse;whiteSpace=wrap;html=1;" vertex="1" parent="1">
          <mxGeometry x="320" y="110" width="120" height="80" as="geometry" />
        </mxCell>
        <mxCell id="dxDKgwhhENgG4zNvhnqX-2" value="&lt;b style=&quot;font-size: 16px&quot;&gt;MODE_A&lt;/b&gt;" style="ellipse;whiteSpace=wrap;html=1;" vertex="1" parent="1">
          <mxGeometry x="540" y="240" width="120" height="80" as="geometry" />
        </mxCell>
        <mxCell id="dxDKgwhhENgG4zNvhnqX-3" value="&lt;b style=&quot;font-size: 16px&quot;&gt;MODE_B&lt;/b&gt;" style="ellipse;whiteSpace=wrap;html=1;" vertex="1" parent="1">
          <mxGeometry x="320" y="240" width="120" height="80" as="geometry" />
        </mxCell>
        <mxCell id="dxDKgwhhENgG4zNvhnqX-4" value="&lt;b style=&quot;font-size: 16px&quot;&gt;MODE_C&lt;/b&gt;" style="ellipse;whiteSpace=wrap;html=1;" vertex="1" parent="1">
          <mxGeometry x="100" y="240" width="120" height="80" as="geometry" />
        </mxCell>
        <mxCell id="dxDKgwhhENgG4zNvhnqX-13" value="&lt;font style=&quot;font-size: 14px&quot;&gt;&lt;b&gt;bt_0 = &#39;1&#39;&lt;/b&gt;&lt;/font&gt;" style="text;html=1;align=center;verticalAlign=middle;resizable=0;points=[];autosize=1;" vertex="1" parent="1">
          <mxGeometry x="600" y="200" width="70" height="20" as="geometry" />
        </mxCell>
        <mxCell id="dxDKgwhhENgG4zNvhnqX-19" value="&lt;font style=&quot;font-size: 14px&quot;&gt;&lt;b&gt;bt_1 = &#39;1&#39;&lt;/b&gt;&lt;/font&gt;" style="text;html=1;align=center;verticalAlign=middle;resizable=0;points=[];autosize=1;" vertex="1" parent="1">
          <mxGeometry x="379" y="200" width="70" height="20" as="geometry" />
        </mxCell>
        <mxCell id="dxDKgwhhENgG4zNvhnqX-20" value="&lt;font style=&quot;font-size: 14px&quot;&gt;&lt;b&gt;bt_2 = &#39;1&#39;&lt;/b&gt;&lt;/font&gt;" style="text;html=1;align=center;verticalAlign=middle;resizable=0;points=[];autosize=1;" vertex="1" parent="1">
          <mxGeometry x="170" y="200" width="70" height="20" as="geometry" />
        </mxCell>
      </root>
    </mxGraphModel>
  </diagram>
</mxfile>
